<?xml version="1.0" standalone="no"?>
<!DOCTYPE svg PUBLIC "-//W3C//DTD SVG 20010904//EN"
 "http://www.w3.org/TR/2001/REC-SVG-20010904/DTD/svg10.dtd">
<svg version="1.0" xmlns="http://www.w3.org/2000/svg"
 width="512.000000pt" height="512.000000pt" viewBox="0 0 512.000000 512.000000"
 preserveAspectRatio="xMidYMid meet">

<g transform="translate(0.000000,512.000000) scale(0.100000,-0.100000)"
fill="#000000" stroke="none">
<path d="M2390 5109 c-651 -73 -1189 -582 -1300 -1234 -18 -106 -20 -162 -20
-619 l0 -502 -39 -17 c-47 -21 -116 -88 -141 -137 -10 -20 -23 -62 -29 -95
-14 -76 -15 -1949 -1 -2050 27 -191 177 -365 370 -431 53 -18 111 -19 1330
-19 1219 0 1277 1 1330 19 193 66 343 240 370 431 14 101 13 1974 -1 2050 -6
33 -19 75 -29 95 -26 51 -93 115 -148 142 l-47 23 -1163 3 -1163 2 4 508 c4
570 1 551 82 719 106 218 293 377 530 449 80 24 106 27 235 27 129 0 155 -3
235 -27 237 -72 424 -231 530 -449 76 -159 77 -167 84 -572 4 -261 9 -366 19
-382 29 -51 38 -53 308 -53 l252 0 31 31 31 31 0 353 c0 308 -3 368 -20 470
-133 780 -854 1322 -1640 1234z m342 -3016 c77 -36 156 -105 194 -170 89 -153
72 -350 -42 -490 l-35 -43 72 -218 72 -217 -17 -36 c-30 -64 -31 -64 -422 -64
l-353 0 -30 29 c-16 15 -32 39 -36 53 -4 17 17 93 65 239 l72 214 -36 43
c-144 176 -130 428 33 580 91 85 179 118 306 114 77 -2 100 -7 157 -34z"/>
</g>
</svg>
